<svg data-v-423bf9ae="" xmlns="http://www.w3.org/2000/svg" viewBox="0 0 553 107" class="iconLeft"><!----><!----><!----><g data-v-423bf9ae="" id="dd0ccf3d-0e12-44e5-a154-5beb7aeed8b8" fill="#1f5692" transform="matrix(5.928853821986509,0,0,5.928853821986509,100.95204030601374,-1.2747474179649743)"><path d="M6.05 11.31L6.05 11.31L6.05 11.31Q6.05 12.66 5.03 13.44L5.03 13.44L5.03 13.44Q4.00 14.22 2.55 14.22L2.55 14.22L2.55 14.22Q1.57 14.22 0.93 13.73L0.93 13.73L0.93 13.73Q0.29 13.23 0.22 12.88L0.22 12.88L0.22 12.88Q0.38 12.42 0.88 11.84L0.88 11.84L0.88 11.84Q1.39 11.27 1.79 11.14L1.79 11.14L1.79 11.14Q2.51 11.61 3.12 13.20L3.12 13.20L3.12 13.20Q4.03 13.17 4.03 12.21L4.03 12.21L4.03 12.21Q4.03 11.68 3.60 10.90L3.60 10.90L3.60 10.90Q3.18 10.12 2.67 9.44L2.67 9.44L2.67 9.44Q2.17 8.76 1.74 7.92L1.74 7.92L1.74 7.92Q1.32 7.07 1.32 6.41L1.32 6.41L1.32 6.41Q1.32 5.35 2.18 4.73L2.18 4.73L2.18 4.73Q3.04 4.12 4.12 4.12L4.12 4.12L4.12 4.12Q5.19 4.12 5.79 4.58L5.79 4.58L5.79 4.58Q6.38 5.04 6.38 5.63L6.38 5.63L6.38 5.63Q6.38 6.22 5.94 6.83L5.94 6.83L5.94 6.83Q5.49 7.45 5.04 7.81L5.04 7.81L4.59 8.18L4.59 8.18Q4.76 8.40 5.00 8.75L5.00 8.75L5.00 8.75Q5.24 9.10 5.64 9.94L5.64 9.94L5.64 9.94Q6.05 10.78 6.05 11.31ZM4.98 6.72L4.98 6.72L4.98 6.72Q5.17 6.54 5.32 6.28L5.32 6.28L5.32 6.28Q5.47 6.02 5.47 5.73L5.47 5.73L5.47 5.73Q5.47 5.45 5.14 5.25L5.14 5.25L5.14 5.25Q4.80 5.05 4.33 5.05L4.33 5.05L4.33 5.05Q3.86 5.05 3.55 5.27L3.55 5.27L3.55 5.27Q3.23 5.49 3.23 5.79L3.23 5.79L3.23 5.79Q3.23 6.09 3.44 6.49L3.44 6.49L3.44 6.49Q3.64 6.89 3.84 7.15L3.84 7.15L4.05 7.42L4.05 7.42Q4.19 7.35 4.49 7.13L4.49 7.13L4.49 7.13Q4.79 6.90 4.98 6.72ZM7.28 14.10L7.28 14.10L7.01 14.10L7.01 14.10Q7.01 13.44 7.41 11.58L7.41 11.58L7.41 11.58Q7.81 9.72 7.81 9.46L7.81 9.46L7.81 9.46Q7.81 9.00 7.42 8.48L7.42 8.48L7.29 8.32L7.31 8.13L7.31 8.13Q8.06 7.92 9.73 7.92L9.73 7.92L9.73 7.92Q9.93 8.19 9.93 8.79L9.93 8.79L9.93 8.79Q11.19 7.85 11.93 7.85L11.93 7.85L11.93 7.85Q12.87 7.85 13.03 8.82L13.03 8.82L13.03 8.82Q13.41 8.51 14.02 8.18L14.02 8.18L14.02 8.18Q14.63 7.85 15.11 7.85L15.11 7.85L15.11 7.85Q15.60 7.85 15.92 8.17L15.92 8.17L15.92 8.17Q16.24 8.48 16.24 9.04L16.24 9.04L16.24 9.04Q16.24 9.60 15.93 10.89L15.93 10.89L15.93 10.89Q15.62 12.18 15.62 12.62L15.62 12.62L15.62 12.62Q15.62 13.06 15.75 13.06L15.75 13.06L15.75 13.06Q15.83 13.06 16.32 12.80L16.32 12.80L16.48 12.71L16.73 13.20L16.73 13.20Q16.37 13.57 15.74 13.90L15.74 13.90L15.74 13.90Q15.12 14.22 14.64 14.22L14.64 14.22L14.64 14.22Q13.59 14.22 13.59 13.03L13.59 13.03L13.59 13.03Q13.59 12.60 13.89 11.29L13.89 11.29L13.89 11.29Q14.20 9.98 14.20 9.58L14.20 9.58L14.20 9.58Q14.20 9.18 13.96 9.18L13.96 9.18L13.96 9.18Q13.55 9.18 13.03 9.49L13.03 9.49L13.03 9.49Q13.01 9.77 12.65 11.40L12.65 11.40L12.65 11.40Q12.29 13.02 12.29 13.92L12.29 13.92L12.29 13.92Q11.89 14.10 10.39 14.10L10.39 14.10L10.39 14.10Q10.36 13.94 10.36 13.36L10.36 13.36L10.36 13.36Q10.36 12.77 10.69 11.35L10.69 11.35L10.69 11.35Q11.02 9.94 11.02 9.56L11.02 9.56L11.02 9.56Q11.02 9.18 10.75 9.18L10.75 9.18L10.75 9.18Q10.33 9.18 9.83 9.52L9.83 9.52L9.83 9.52Q9.80 9.65 9.55 10.75L9.55 10.75L9.55 10.75Q9.04 12.96 9.04 13.90L9.04 13.90L9.04 13.90Q8.55 14.10 7.28 14.10ZM21.35 8.26L21.35 8.26L21.35 8.26Q21.38 8.23 21.50 7.90L21.50 7.90L21.50 7.90Q22.16 7.90 23.27 8.29L23.27 8.29L23.27 8.29Q22.92 9.45 22.71 10.72L22.71 10.72L22.71 10.72Q22.50 11.98 22.50 12.52L22.50 12.52L22.50 12.52Q22.50 13.06 22.61 13.06L22.61 13.06L22.61 13.06Q22.69 13.06 23.23 12.80L23.23 12.80L23.39 12.71L23.65 13.20L23.65 13.20Q23.52 13.31 23.32 13.48L23.32 13.48L23.32 13.48Q23.11 13.65 22.55 13.94L22.55 13.94L22.55 13.94Q21.99 14.22 21.55 14.22L21.55 14.22L21.55 14.22Q20.68 14.22 20.54 13.44L20.54 13.44L20.54 13.44Q19.64 14.22 18.92 14.22L18.92 14.22L18.92 14.22Q18.20 14.22 17.70 13.66L17.70 13.66L17.70 13.66Q17.21 13.10 17.21 11.90L17.21 11.90L17.21 11.90Q17.21 10.02 17.98 8.94L17.98 8.94L17.98 8.94Q18.75 7.85 19.84 7.85L19.84 7.85L19.84 7.85Q20.62 7.85 21.35 8.26ZM19.75 13.03L19.75 13.03L19.75 13.03Q20.09 13.03 20.51 12.77L20.51 12.77L20.51 12.77Q20.61 10.79 21.17 8.86L21.17 8.86L21.17 8.86Q20.75 8.68 20.45 8.68L20.45 8.68L20.45 8.68Q19.95 8.68 19.59 9.67L19.59 9.67L19.59 9.67Q19.24 10.65 19.24 11.84L19.24 11.84L19.24 11.84Q19.24 13.03 19.75 13.03ZM24.18 14.10L24.18 14.10L24.08 14.10L24.08 14.10Q24.05 13.99 24.05 13.59L24.05 13.59L24.05 13.59Q24.05 13.19 24.43 11.44L24.43 11.44L24.43 11.44Q24.81 9.69 24.81 9.44L24.81 9.44L24.81 9.44Q24.81 9.00 24.42 8.48L24.42 8.48L24.29 8.32L24.30 8.13L24.30 8.13Q25.06 7.92 26.73 7.92L26.73 7.92L26.73 7.92Q26.89 8.29 26.89 8.95L26.89 8.95L26.89 8.95Q27.05 8.69 27.54 8.27L27.54 8.27L27.54 8.27Q28.03 7.85 28.55 7.85L28.55 7.85L28.55 7.85Q29.30 7.85 29.30 9.17L29.30 9.17L29.30 9.17Q29.23 9.25 29.11 9.39L29.11 9.39L29.11 9.39Q28.99 9.52 28.64 9.76L28.64 9.76L28.64 9.76Q28.28 10.00 27.94 10.05L27.94 10.05L27.94 10.05Q27.93 10.05 27.71 9.67L27.71 9.67L27.71 9.67Q27.48 9.30 27.37 9.30L27.37 9.30L27.37 9.30Q27.02 9.42 26.75 9.72L26.75 9.72L26.75 9.72Q26.11 12.61 26.11 13.47L26.11 13.47L26.11 13.47Q26.11 13.78 26.12 13.90L26.12 13.90L26.12 13.90Q25.63 14.10 24.18 14.10ZM32.30 8.02L33.66 8.02L33.66 8.02Q33.63 8.37 33.42 8.83L33.42 8.83L33.42 8.83Q32.89 8.78 32.41 8.78L32.41 8.78L32.16 8.78L32.16 8.78Q31.51 11.90 31.51 12.67L31.51 12.67L31.51 12.67Q31.51 13.08 31.69 13.08L31.69 13.08L31.69 13.08Q31.86 13.08 32.62 12.73L32.62 12.73L32.87 13.19L32.87 13.19Q31.63 14.22 30.56 14.22L30.56 14.22L30.56 14.22Q30.07 14.22 29.76 13.92L29.76 13.92L29.76 13.92Q29.44 13.61 29.44 13.10L29.44 13.10L29.44 13.10Q29.44 12.59 29.56 11.94L29.56 11.94L29.56 11.94Q29.68 11.30 29.89 10.37L29.89 10.37L29.89 10.37Q30.10 9.44 30.20 8.86L30.20 8.86L30.20 8.86Q29.68 8.90 29.43 8.95L29.43 8.95L29.43 8.95Q29.40 8.78 29.40 8.49L29.40 8.49L29.40 8.49Q29.40 8.20 29.44 8.02L29.44 8.02L30.32 8.02L30.32 8.02Q30.44 7.27 30.44 6.59L30.44 6.59L30.42 6.16L30.42 6.12L30.42 6.12Q31.51 5.74 32.48 5.74L32.48 5.74L32.48 5.74Q32.54 6.02 32.54 6.44L32.54 6.44L32.54 6.44Q32.54 6.86 32.30 8.02L32.30 8.02ZM34.89 4.12L34.89 4.12L39.56 4.27L40.88 4.24L40.88 4.24Q40.92 4.54 40.92 4.86L40.92 4.86L40.92 4.86Q40.92 5.18 40.81 5.32L40.81 5.32L40.81 5.32Q40.70 5.46 40.40 5.46L40.40 5.46L40.40 5.46Q40.38 5.46 38.43 5.28L38.43 5.28L38.43 5.28Q38.37 5.91 38.01 7.43L38.01 7.43L38.01 7.43Q37.65 8.96 37.31 10.70L37.31 10.70L37.31 10.70Q36.97 12.43 36.96 13.82L36.96 13.82L36.96 13.82Q36.41 14.10 34.72 14.10L34.72 14.10L34.62 14.10L34.62 14.10Q34.62 13.37 35.42 9.76L35.42 9.76L35.42 9.76Q36.22 6.15 36.22 5.36L36.22 5.36L36.22 5.36Q36.22 5.31 36.19 5.17L36.19 5.17L35.63 5.17L35.63 5.17Q34.48 5.17 33.87 5.52L33.87 5.52L33.87 5.52Q33.54 5.10 33.47 4.28L33.47 4.28L33.47 4.28Q33.95 4.12 34.89 4.12ZM39.73 13.00L39.73 13.00L39.73 13.00Q39.73 12.40 40.10 10.96L40.10 10.96L40.10 10.96Q40.46 9.51 40.46 9.18L40.46 9.18L40.46 9.18Q40.46 8.85 39.96 8.30L39.96 8.30L39.97 8.12L39.97 8.12Q40.92 7.92 42.48 7.92L42.48 7.92L42.48 7.92Q42.55 8.11 42.55 8.58L42.55 8.58L42.55 8.58Q42.55 9.06 42.15 10.61L42.15 10.61L42.15 10.61Q41.76 12.17 41.76 12.54L41.76 12.54L41.76 12.54Q41.76 12.92 42.04 12.92L42.04 12.92L42.04 12.92Q42.45 12.92 42.98 12.63L42.98 12.63L42.98 12.63Q43.04 12.29 43.26 11.34L43.26 11.34L43.26 11.34Q43.76 9.10 43.76 8.13L43.76 8.13L43.76 8.13Q44.25 7.94 45.53 7.94L45.53 7.94L45.79 7.94L45.79 7.94Q45.79 8.60 45.40 10.51L45.40 10.51L45.40 10.51Q45.01 12.42 45.01 12.75L45.01 12.75L45.01 12.75Q45.01 13.08 45.15 13.08L45.15 13.08L45.15 13.08Q45.23 13.08 45.95 12.74L45.95 12.74L46.21 13.19L46.21 13.19Q44.97 14.22 44.03 14.22L44.03 14.22L44.03 14.22Q43.58 14.22 43.27 13.97L43.27 13.97L43.27 13.97Q42.95 13.72 42.91 13.31L42.91 13.31L42.91 13.31Q41.78 14.24 40.85 14.24L40.85 14.24L40.85 14.24Q40.36 14.24 40.05 13.92L40.05 13.92L40.05 13.92Q39.73 13.59 39.73 13.00ZM49.63 8.02L50.99 8.02L50.99 8.02Q50.96 8.37 50.75 8.83L50.75 8.83L50.75 8.83Q50.22 8.78 49.74 8.78L49.74 8.78L49.49 8.78L49.49 8.78Q48.85 11.90 48.85 12.67L48.85 12.67L48.85 12.67Q48.85 13.08 49.02 13.08L49.02 13.08L49.02 13.08Q49.20 13.08 49.95 12.73L49.95 12.73L50.20 13.19L50.20 13.19Q48.96 14.22 47.89 14.22L47.89 14.22L47.89 14.22Q47.40 14.22 47.09 13.92L47.09 13.92L47.09 13.92Q46.77 13.61 46.77 13.10L46.77 13.10L46.77 13.10Q46.77 12.59 46.89 11.94L46.89 11.94L46.89 11.94Q47.01 11.30 47.22 10.37L47.22 10.37L47.22 10.37Q47.43 9.44 47.53 8.86L47.53 8.86L47.53 8.86Q47.01 8.90 46.76 8.95L46.76 8.95L46.76 8.95Q46.73 8.78 46.73 8.49L46.73 8.49L46.73 8.49Q46.73 8.20 46.77 8.02L46.77 8.02L47.66 8.02L47.66 8.02Q47.77 7.27 47.77 6.59L47.77 6.59L47.75 6.16L47.75 6.12L47.75 6.12Q48.85 5.74 49.81 5.74L49.81 5.74L49.81 5.74Q49.87 6.02 49.87 6.44L49.87 6.44L49.87 6.44Q49.87 6.86 49.63 8.02L49.63 8.02ZM52.74 14.22L52.74 14.22L52.74 14.22Q51.77 14.22 51.23 13.55L51.23 13.55L51.23 13.55Q50.68 12.87 50.68 11.65L50.68 11.65L50.68 11.65Q50.68 10.09 51.51 8.97L51.51 8.97L51.51 8.97Q52.35 7.85 53.82 7.85L53.82 7.85L54.32 7.88L54.32 7.88Q54.56 7.76 54.85 7.76L54.85 7.76L54.85 7.76Q55.96 7.76 55.96 9.84L55.96 9.84L55.96 9.84Q56.53 9.81 57.12 9.69L57.12 9.69L57.34 9.63L57.43 10.18L57.43 10.18Q56.97 10.37 56.18 10.53L56.18 10.53L55.90 10.58L55.90 10.58Q55.64 12.05 54.82 13.14L54.82 13.14L54.82 13.14Q54.01 14.22 52.74 14.22ZM53.49 13.02L53.49 13.02L53.49 13.02Q54.08 13.02 54.55 12.26L54.55 12.26L54.55 12.26Q55.02 11.51 55.20 10.67L55.20 10.67L55.20 10.67Q53.70 10.67 53.70 9.55L53.70 9.55L53.70 9.55Q53.70 9.10 53.89 8.71L53.89 8.71L53.96 8.57L53.96 8.57Q53.90 8.54 53.82 8.54L53.82 8.54L53.82 8.54Q53.73 8.54 53.69 8.57L53.69 8.57L53.69 8.57Q53.34 8.79 53.03 9.62L53.03 9.62L53.03 9.62Q52.72 10.44 52.72 11.51L52.72 11.51L52.72 11.51Q52.72 13.02 53.49 13.02ZM56.59 14.10L56.59 14.10L56.49 14.10L56.49 14.10Q56.46 13.99 56.46 13.59L56.46 13.59L56.46 13.59Q56.46 13.19 56.84 11.44L56.84 11.44L56.84 11.44Q57.22 9.69 57.22 9.44L57.22 9.44L57.22 9.44Q57.22 9.00 56.83 8.48L56.83 8.48L56.70 8.32L56.71 8.13L56.71 8.13Q57.47 7.92 59.14 7.92L59.14 7.92L59.14 7.92Q59.30 8.29 59.30 8.95L59.30 8.95L59.30 8.95Q59.46 8.69 59.95 8.27L59.95 8.27L59.95 8.27Q60.44 7.85 60.96 7.85L60.96 7.85L60.96 7.85Q61.71 7.85 61.71 9.17L61.71 9.17L61.71 9.17Q61.64 9.25 61.52 9.39L61.52 9.39L61.52 9.39Q61.40 9.52 61.05 9.76L61.05 9.76L61.05 9.76Q60.69 10.00 60.35 10.05L60.35 10.05L60.35 10.05Q60.34 10.05 60.12 9.67L60.12 9.67L60.12 9.67Q59.89 9.30 59.78 9.30L59.78 9.30L59.78 9.30Q59.43 9.42 59.16 9.72L59.16 9.72L59.16 9.72Q58.52 12.61 58.52 13.47L58.52 13.47L58.52 13.47Q58.52 13.78 58.53 13.90L58.53 13.90L58.53 13.90Q58.04 14.10 56.59 14.10ZM64.62 13.87L64.62 13.87L64.62 13.87Q64.53 14.18 64.18 14.18L64.18 14.18L64.18 14.18Q63.84 14.18 63.41 13.80L63.41 13.80L63.41 13.80Q63.83 12.57 65.18 9.84L65.18 9.84L65.18 9.84Q66.54 7.10 66.95 5.74L66.95 5.74L66.95 5.74Q67.00 5.52 67.00 5.43L67.00 5.43L67.00 5.43Q67.00 5.22 66.70 4.79L66.70 4.79L66.58 4.63L66.61 4.45L66.61 4.45Q67.80 4.12 69.24 4.12L69.24 4.12L70.10 4.17L70.10 4.17Q70.25 4.38 70.34 4.82L70.34 4.82L70.34 4.82Q70.56 5.88 70.56 10.29L70.56 10.29L70.56 10.29Q70.56 12.00 70.85 12.70L70.85 12.70L70.85 12.70Q70.97 12.96 71.08 12.96L71.08 12.96L71.08 12.96Q71.19 12.96 71.76 12.68L71.76 12.68L71.95 12.60L72.23 13.10L72.23 13.10Q71.69 13.62 71.04 13.92L71.04 13.92L71.04 13.92Q70.39 14.22 69.85 14.22L69.85 14.22L69.85 14.22Q68.43 14.22 68.43 12.03L68.43 12.03L68.43 10.92L68.43 10.92Q68.07 10.84 67.33 10.84L67.33 10.84L67.33 10.84Q66.58 10.84 65.70 10.98L65.70 10.98L65.70 10.98Q65.00 12.60 64.62 13.87ZM66.15 9.97L68.46 9.97L68.47 8.34L68.47 8.34Q68.47 6.22 68.29 5.46L68.29 5.46L68.29 5.46Q68.18 5.46 68.12 5.49L68.12 5.49L68.12 5.49Q67.73 6.57 67.39 7.32L67.39 7.32L67.39 7.32Q67.05 8.06 66.65 8.91L66.65 8.91L66.65 8.91Q66.25 9.76 66.15 9.97L66.15 9.97ZM74.77 12.63L74.77 12.63L74.77 12.63Q74.77 12.94 74.93 12.94L74.93 12.94L74.93 12.94Q75.01 12.94 75.74 12.57L75.74 12.57L76.01 13.09L76.01 13.09Q74.75 14.22 73.78 14.22L73.78 14.22L73.78 14.22Q73.18 14.22 72.86 13.82L72.86 13.82L72.86 13.82Q72.55 13.41 72.55 12.81L72.55 12.81L72.55 12.81Q72.55 12.21 73.23 9.51L73.23 9.51L73.23 9.51Q73.91 6.82 73.98 5.81L73.98 5.81L73.98 5.81Q73.98 5.59 73.83 5.27L73.83 5.27L73.83 5.27Q73.68 4.96 73.53 4.76L73.53 4.76L73.39 4.56L73.43 4.35L73.43 4.35Q74.23 4.12 76.06 4.12L76.06 4.12L76.06 4.12Q76.23 4.44 76.23 5.05L76.23 5.05L76.23 5.05Q76.23 5.66 75.50 8.57L75.50 8.57L75.50 8.57Q74.77 11.48 74.77 12.63Z"></path></g><!----><g data-v-423bf9ae="" id="e8330467-0d5b-4c52-af55-2b2b7817668a" transform="matrix(1.0868111504448785,0,0,1.0868111504448785,-13.255261890115804,-0.23894260335429607)" stroke="none" fill='#1f5692'><g clip-rule="evenodd"><path d="M12.983 10.59l17.018 88.223-5.872-59.049 29.021-1.892-.054-9.883L64.549 1 53.622 18.977z"></path><path d="M59.389 54.548l5.16-53.541-8.74 39.716-19.612 1.045 1.57 20.462-7.766 36.583 12.057-39.899z"></path><path d="M62.8 67.182l.549-10.453-15.979 3.755-.032 11.797-17.337 26.532 21.68-27.616zM65.711 62.394l14.841-4.731 1.509-12.532-15.899 2.095zM72.07 44.502l10.988-1.417 1.581-10.278-8.079-.373L64.549 1l8.43 30.967z"></path><path d="M87.413 31.294l1.256-9.506-9.544-2.694L64.549 1l14.483 22.437-.422 7z"></path></g></g><!----></svg>